<svg width="19" height="17" viewBox="0 0 19 17" fill="none" xmlns="http://www.w3.org/2000/svg">
<path d="M0.5 6.3541C0.5 5.33011 1.33011 4.5 2.3541 4.5C3.05638 4.5 3.69839 4.10322 4.01246 3.47508L4.83333 1.83333C4.94329 1.61342 4.99827 1.50346 5.06062 1.40782C5.3859 0.908817 5.91668 0.580775 6.50848 0.512992C6.6219 0.5 6.74484 0.5 6.99071 0.5H12.0093C12.2552 0.5 12.3781 0.5 12.4915 0.512992C13.0833 0.580775 13.6141 0.908817 13.9394 1.40782C14.0017 1.50346 14.0567 1.61342 14.1667 1.83333L14.9875 3.47508C15.3016 4.10322 15.9436 4.5 16.6459 4.5C17.6699 4.5 18.5 5.33011 18.5 6.3541V11.3571C18.5 13.3619 18.5 14.3643 18.0402 15.0961C17.8004 15.4777 17.4777 15.8004 17.0961 16.0402C16.3643 16.5 15.3619 16.5 13.3571 16.5H5.64286C3.6381 16.5 2.63571 16.5 1.9039 16.0402C1.52229 15.8004 1.19961 15.4777 0.959827 15.0961C0.5 14.3643 0.5 13.3619 0.5 11.3571V6.3541Z" stroke="black"/>
<circle cx="9.5" cy="9.5" r="3.5" stroke="black"/>
</svg>
