<svg width="23" height="21" viewBox="0 0 23 21" fill="none" xmlns="http://www.w3.org/2000/svg">
<rect y="2.43164" width="4.51693" height="18.0677" rx="1.38983" fill="black"/>
<rect x="12.5083" width="4.51693" height="20.4999" rx="1.38983" fill="black"/>
<rect x="16.9351" y="2.88818" width="3.94646" height="17.9109" rx="1.38983" transform="rotate(-6.32465 16.9351 2.88818)" fill="black"/>
<path fill-rule="evenodd" clip-rule="evenodd" d="M5.2124 7.29656C5.2124 6.52898 5.83465 5.90674 6.60223 5.90674H10.0768C10.8444 5.90674 11.4666 6.52898 11.4666 7.29656V19.1101C11.4666 19.8777 10.8444 20.4999 10.0768 20.4999H6.60223C5.83465 20.4999 5.2124 19.8777 5.2124 19.1101V7.29656ZM6.9493 8.51241C6.9493 8.22456 7.18264 7.99122 7.47048 7.99122H9.20776C9.49561 7.99122 9.72895 8.22456 9.72895 8.51241C9.72895 8.80025 9.49561 9.03359 9.20777 9.03359H7.47048C7.18264 9.03359 6.9493 8.80025 6.9493 8.51241ZM7.47048 17.3724C7.18264 17.3724 6.9493 17.6058 6.9493 17.8936C6.9493 18.1815 7.18264 18.4148 7.47048 18.4148H9.20777C9.49561 18.4148 9.72895 18.1815 9.72895 17.8936C9.72895 17.6058 9.49561 17.3724 9.20776 17.3724H7.47048Z" fill="black"/>
</svg>
